<?xml version="1.0" standalone="no"?>
<!DOCTYPE svg PUBLIC "-//W3C//DTD SVG 20010904//EN"
 "http://www.w3.org/TR/2001/REC-SVG-20010904/DTD/svg10.dtd">
<svg version="1.0" xmlns="http://www.w3.org/2000/svg"
 width="1200.000000pt" height="1200.000000pt" viewBox="0 0 1200.000000 1200.000000"
 preserveAspectRatio="xMidYMid meet">
<metadata>
Created by potrace 1.14, written by Peter Selinger 2001-2017
</metadata>
<g transform="translate(0.000000,1200.000000) scale(0.100000,-0.100000)"
fill="#000000" stroke="none">
<path d="M3980 6000 c0 -927 2 -1050 15 -1050 13 0 15 123 15 1050 0 927 -2
1050 -15 1050 -13 0 -15 -123 -15 -1050z"/>
<path d="M1881 6750 c-39 -9 -77 -35 -105 -74 -21 -27 -21 -38 -24 -724 -2
-383 0 -711 3 -729 7 -39 46 -87 89 -111 28 -15 78 -17 476 -20 495 -4 554 -1
602 31 55 37 72 85 76 223 l4 122 95 108 c52 60 117 134 144 166 l49 56 -37
30 -38 30 -104 -120 c-57 -65 -105 -118 -107 -116 -2 3 -5 231 -6 509 -3 456
-5 507 -20 536 -25 45 -61 70 -119 82 -58 13 -925 13 -978 1z m999 -58 c71
-35 70 -24 70 -613 l0 -526 -71 -82 c-38 -44 -73 -81 -77 -81 -3 0 -34 27 -67
60 l-61 60 -34 -29 -35 -28 94 -102 c51 -55 98 -101 104 -101 10 0 25 16 112
115 l34 40 1 -80 c0 -97 -19 -142 -70 -167 -32 -16 -78 -18 -508 -18 -514 0
-506 -1 -551 56 -21 26 -21 32 -21 728 0 775 -4 725 64 767 29 18 56 19 506
19 432 0 478 -2 510 -18z"/>
<path d="M1970 6475 l0 -25 390 0 390 0 0 25 0 25 -390 0 -390 0 0 -25z"/>
<path d="M1970 6135 l0 -25 390 0 390 0 0 25 0 25 -390 0 -390 0 0 -25z"/>
<path d="M1970 5795 l0 -25 390 0 390 0 0 25 0 25 -390 0 -390 0 0 -25z"/>
<path d="M1970 5450 c0 -19 7 -20 225 -20 218 0 225 1 225 20 0 19 -7 20 -225
20 -218 0 -225 -1 -225 -20z"/>
<path d="M7019 6568 l-56 -10 -42 -196 -43 -197 -106 0 c-102 0 -110 -2 -182
-37 -124 -60 -218 -169 -266 -308 -63 -179 -30 -350 77 -405 16 -9 55 -15 90
-15 80 0 136 27 212 103 l57 58 0 -49 c0 -57 17 -112 34 -112 7 0 34 7 60 16
41 14 47 19 42 38 -23 82 -24 79 79 561 69 323 115 547 115 556 0 5 -3 8 -7 8
-5 -1 -33 -6 -64 -11z m-198 -518 c25 -14 25 -60 -1 -169 -32 -131 -108 -254
-207 -333 -63 -49 -123 -51 -157 -5 -18 25 -21 43 -21 130 0 93 3 108 32 169
41 86 100 150 176 188 63 32 139 40 178 20z"/>
<path d="M4833 6445 c-5 -31 -6 -58 -2 -61 5 -2 85 -2 179 1 144 5 170 4 170
-9 0 -8 -24 -137 -54 -288 -116 -585 -126 -638 -126 -658 0 -19 5 -21 63 -18
l62 3 97 485 c53 267 97 486 97 488 1 1 84 2 185 2 l184 0 11 50 c6 28 11 53
11 55 0 3 -195 5 -433 5 l-434 0 -10 -55z"/>
<path d="M8750 6327 c-25 -5 -47 -11 -49 -13 -2 -1 -11 -38 -20 -80 l-16 -77
-57 -20 c-57 -18 -58 -19 -58 -58 l0 -39 45 0 c25 0 45 -2 45 -5 0 -3 -20 -99
-44 -213 -62 -288 -63 -323 -12 -380 l34 -37 85 0 c77 0 90 3 153 35 63 33 69
38 68 65 -1 17 -7 43 -13 58 l-11 28 -33 -25 c-77 -59 -147 -71 -174 -30 -20
31 -16 63 44 337 l36 167 108 0 108 0 10 38 c21 74 23 72 -94 72 -77 0 -105 3
-105 13 0 6 9 49 19 95 l18 82 -21 -1 c-12 -1 -41 -6 -66 -12z"/>
<path d="M5802 6154 c-277 -74 -420 -487 -235 -678 56 -58 110 -78 205 -78
132 1 232 60 317 187 208 311 34 656 -287 569z m170 -120 c107 -55 91 -312
-28 -443 -51 -57 -101 -81 -166 -81 -111 0 -153 59 -152 210 0 80 4 104 26
151 70 153 206 222 320 163z"/>
<path d="M7437 6159 c-182 -43 -327 -241 -327 -450 0 -133 53 -232 149 -281
46 -24 67 -28 133 -28 128 0 239 62 316 178 68 102 94 182 94 293 0 71 -4 90
-32 145 -17 35 -47 76 -66 92 -65 54 -170 74 -267 51z m161 -126 c51 -38 67
-80 67 -173 0 -187 -107 -336 -249 -348 -65 -5 -97 8 -130 51 -51 67 -54 219
-5 322 67 143 225 217 317 148z"/>
<path d="M8155 6161 c-139 -34 -212 -173 -156 -297 13 -28 47 -65 105 -113 47
-39 90 -80 96 -91 13 -24 13 -76 0 -101 -31 -56 -155 -65 -248 -17 l-50 26
-12 -49 c-7 -27 -10 -55 -7 -63 10 -26 113 -56 189 -56 122 0 203 40 245 120
19 37 23 57 21 111 -4 83 -31 125 -123 193 -77 56 -105 93 -105 136 0 44 16
69 55 86 54 22 120 16 207 -21 14 -5 20 3 33 47 14 49 14 54 -1 65 -38 28
-177 41 -249 24z"/>
<path d="M9358 6146 c-78 -32 -131 -77 -189 -159 -122 -175 -134 -412 -26
-521 54 -54 110 -70 213 -64 63 4 89 12 152 44 75 38 77 40 74 73 -2 19 -8 45
-12 57 l-9 23 -58 -35 c-109 -65 -205 -71 -255 -16 -28 32 -48 87 -48 133 0
23 6 27 56 38 119 27 257 93 322 155 68 63 92 159 56 227 -35 68 -168 90 -276
45z m151 -116 c12 -23 12 -30 -3 -60 -25 -54 -145 -125 -259 -153 l-27 -7 17
42 c46 119 146 211 223 205 25 -1 38 -9 49 -27z"/>
<path d="M10145 6151 c-40 -18 -122 -97 -144 -140 -21 -38 -23 -17 -6 53 23
100 23 99 -32 92 -83 -12 -78 -6 -106 -144 -14 -70 -38 -183 -52 -252 -15 -69
-37 -173 -50 -232 l-22 -108 63 0 c35 0 64 2 64 4 0 3 16 78 36 168 38 176 55
215 138 324 65 85 115 117 172 110 l41 -5 11 50 c7 28 12 59 12 69 0 34 -62
40 -125 11z"/>
</g>
</svg>
